<svg fill="none" xmlns="http://www.w3.org/2000/svg" viewBox="0 0 70 88"><g clip-path="url(#clip0_395_5650)"><path d="M21.564 54.322v-1.628c0-14.877.011-29.755-.016-44.63-.004-2.589.622-4.85 2.748-6.484 2.258-1.734 4.75-2.06 7.327-.884 2.621 1.198 4.097 3.335 4.142 6.222.084 5.346.03 10.695.032 16.044v1.535c2.3-1.117 4.58-1.481 6.888-.427 2.328 1.062 3.66 2.93 4.154 5.531 2.246-1.266 4.515-1.57 6.845-.587 2.321.979 3.634 2.826 4.26 5.312 1.528-.902 3.087-1.309 4.79-1.146 3.276.314 5.963 2.944 6.293 6.226.061.597.07 1.203.07 1.804.005 8.625.007 17.25 0 25.876-.007 10.397-6.518 18.642-16.807 20.22-6.317.97-12.841 1.282-18.99-1.479a20.29 20.29 0 0 1-6.095-4.21c-8.333-8.334-16.672-16.665-25-25.007-2.248-2.254-2.802-5.229-1.561-8.102 1.107-2.569 3.8-4.27 6.669-4.187 1.887.056 3.464.832 4.884 2.057 3.014 2.602 6.072 5.154 9.365 7.942l.002.002Zm3.132-22.254c0 8.175-.007 16.35.007 24.524 0 1.026-.052 1.992-1.153 2.464-1.037.446-1.774-.104-2.52-.762-3.672-3.235-7.36-6.45-11.055-9.66-1.855-1.612-4.226-1.562-5.765.09-1.532 1.647-1.424 4.027.312 5.766 7.982 7.998 15.955 16.008 23.975 23.965 2.922 2.9 6.419 4.999 10.505 5.577 3.405.484 6.892.489 10.345.5 8.86.03 16.444-7.198 16.607-16.042.174-9.416.052-18.836.038-28.254 0-1.368-.628-2.473-1.747-3.253-1.28-.893-2.655-1.02-4.05-.29-1.514.791-2.215 2.105-2.219 3.782-.014 4.71-.002 9.419-.005 14.127 0 .679.014 1.36-.029 2.035-.059.916-.653 1.338-1.496 1.366-.818.027-1.347-.437-1.503-1.244-.07-.364-.045-.75-.045-1.126-.005-6.556 0-13.11-.01-19.665-.001-2.544-1.692-4.418-3.981-4.434-2.28-.018-4.027 1.872-4.034 4.39-.01 3.353 0 6.706-.002 10.059 0 1.394.015 2.787-.005 4.182-.016 1.099-.567 1.688-1.525 1.707-.945.015-1.5-.568-1.571-1.671-.023-.337-.009-.678-.009-1.017 0-6.14.014-12.283-.007-18.423-.007-2.414-1.83-4.264-4.072-4.216-2.226.045-3.894 1.856-3.9 4.264-.01 3.73 0 7.458 0 11.188 0 .717.029 1.433-.012 2.148-.052.951-.52 1.566-1.537 1.589-1.035.022-1.469-.62-1.586-1.544-.043-.335-.016-.678-.016-1.015.031-11.79.072-23.58.074-35.369 0-.807-.135-1.675-.456-2.408-.737-1.675-2.644-2.532-4.425-2.147-1.77.382-3.112 2.104-3.114 4.064-.01 8.25-.005 16.501-.007 24.75l-.007.003Z" fill="#6AD2C8"/><path d="M24.7 32.068c0-8.25-.005-16.501.004-24.75 0-1.963 1.347-3.683 3.114-4.065 1.781-.384 3.689.472 4.425 2.148.321.73.457 1.6.457 2.407-.002 11.79-.043 23.58-.075 35.369 0 .34-.027.683.016 1.015.118.925.552 1.569 1.587 1.544 1.017-.022 1.484-.64 1.536-1.59.039-.714.012-1.43.012-2.147 0-3.73-.007-7.46 0-11.188.006-2.408 1.672-4.216 3.9-4.264 2.244-.047 4.066 1.802 4.073 4.216.02 6.14.006 12.283.006 18.423 0 .339-.01.678.01 1.017.07 1.101.626 1.687 1.57 1.67.96-.017 1.51-.607 1.526-1.706.02-1.393.004-2.787.004-4.182 0-3.353-.007-6.706.002-10.058.007-2.519 1.754-4.406 4.034-4.39 2.29.018 3.98 1.89 3.982 4.433.007 6.556.005 13.11.01 19.666 0 .375-.025.761.045 1.125.156.808.684 1.269 1.502 1.244.843-.027 1.44-.45 1.497-1.366.043-.675.029-1.356.029-2.034 0-4.71-.01-9.418.005-14.127.004-1.678.707-2.991 2.219-3.782 1.396-.73 2.773-.604 4.05.289 1.118.78 1.744 1.885 1.747 3.253.013 9.418.133 18.839-.039 28.254-.163 8.844-7.745 16.072-16.606 16.042-3.453-.011-6.94-.016-10.346-.5-4.084-.578-7.58-2.676-10.504-5.577-8.02-7.96-15.994-15.967-23.976-23.965-1.735-1.739-1.846-4.121-.312-5.765 1.54-1.653 3.91-1.702 5.765-.09a2140.95 2140.95 0 0 1 11.056 9.66c.746.655 1.483 1.207 2.52.761 1.1-.472 1.155-1.437 1.152-2.464-.013-8.175-.006-16.35-.006-24.524l.009-.002Z" fill="#E52825"/></g><defs><clipPath id="clip0_395_5650"><path fill="#fff" d="M0 0h69.104v88H0z"/></clipPath></defs></svg>