<svg fill="none" xmlns="http://www.w3.org/2000/svg" viewBox="0 0 58 58"><g clip-path="url(#clip0_413_2435)" fill="currentColor"><path d="M2.884 57.144C.864 55.77-.006 53.876 0 51.424.036 36.346.014 21.267.023 6.188c.001-2.67 1.221-4.61 3.664-5.7A5.641 5.641 0 0 1 5.989 0c15.337.008 30.675.006 46.013.008 2.463 0 4.167 1.259 5.4 3.287.31.841.593 1.685.593 2.6-.001 15.39 0 30.78.006 46.17a5.5 5.5 0 0 1-.828 2.934c-1.26 2.043-3.097 3.001-5.512 2.998-14.918-.018-29.834-.016-44.752.002-1.419.002-2.769-.167-4.024-.856Zm4.268-21.275c0 .661.03 1.324-.006 1.982-.081 1.438.54 2.405 1.75 3.186 2.924 1.881 6.108 3.157 9.353 4.325.383.138.539-.041.673-.277.587-1.034 1.137-2.089 1.732-3.117.191-.332.08-.449-.21-.576-.84-.372-1.658-.805-2.518-1.124-.563-.208-.503-.455-.309-.898.215-.492.468-.298.775-.157a24.918 24.918 0 0 0 10.493 2.292c1.444-.001 2.886-.047 4.328-.336.733-.147 1.541-.223 2.24-.425 1.447-.416 2.915-.864 4.242-1.62.501-.287.58.066.758.373.194.334.184.521-.22.689-.891.371-1.755.812-2.645 1.188-.382.16-.428.312-.214.666.584.97 1.154 1.95 1.683 2.95.228.432.473.475.895.31 1.364-.533 2.755-.996 4.095-1.598 2.125-.955 4.238-1.926 6.039-3.446.328-.277.596-.563.653-1.04a28.36 28.36 0 0 0-.085-7.314c-.81-5.758-2.894-11.057-5.976-15.979a2.79 2.79 0 0 0-1.123-1.025c-2.26-1.189-4.667-1.894-7.187-2.242-1.03-.143-1.718.288-2.067 1.291-.039.112-.099.218-.119.333-.083.446-.315.519-.753.436-2.496-.48-5.007-.593-7.53-.219-.604.09-1.328.409-1.782.185-.507-.25-.525-1.095-.723-1.691-.127-.384-.316-.504-.72-.462-3.011.31-5.883 1.074-8.545 2.551-.322.178-.545.43-.736.74-.888 1.447-1.724 2.921-2.46 4.453-2.373 4.93-3.778 10.098-3.781 15.599v-.003Z"/><path d="M21.415 34.761c-1.207-.05-2.316-.807-3.051-2.154-.97-1.776-.548-4.162.97-5.487 2.14-1.868 5.482-.771 6.207 2.072.445 1.75.098 3.333-1.263 4.616-.64.603-1.558.957-2.863.953ZM32.297 30.076c.037-1.326.721-2.707 2.294-3.495 1.386-.695 2.75-.504 3.975.453 1.376 1.076 1.943 3.128 1.373 4.868-.647 1.974-2.423 3.13-4.337 2.823-1.909-.307-3.309-2.107-3.305-4.649Z"/></g><defs><clipPath id="clip0_413_2435"><path fill="#fff" d="M0 0h58v58H0z"/></clipPath></defs></svg>