<svg fill="none" xmlns="http://www.w3.org/2000/svg" viewBox="0 0 61 58"><path d="M58.717 0H2.282C1.022 0 0 .972 0 2.17v53.66C0 57.03 1.022 58 2.282 58h56.436c1.26 0 2.282-.971 2.282-2.17V2.17C61 .972 59.977 0 58.717 0Zm-42.51 47.727c0 .799-.682 1.446-1.522 1.446H8.593c-.84 0-1.52-.647-1.52-1.446V22.412c0-.8.68-1.446 1.52-1.446h6.092c.84 0 1.521.647 1.521 1.446v25.315Zm0-32.66c0 .8-.682 1.447-1.522 1.447H8.593c-.84 0-1.52-.648-1.52-1.447V9.924c0-.8.68-1.446 1.52-1.446h6.092c.84 0 1.521.647 1.521 1.446v5.143Zm37.72 32.66c0 .799-.68 1.446-1.52 1.446h-6.092c-.841 0-1.521-.647-1.521-1.446v-10.69c0-3.544-.195-5.836-.586-6.877-.39-1.04-1.024-1.85-1.901-2.425-.878-.578-1.934-.865-3.17-.865-1.582 0-3.001.412-4.258 1.236-1.257.824-2.118 1.916-2.584 3.275-.466 1.36-.699 3.875-.699 7.542v8.804c0 .799-.681 1.446-1.52 1.446h-6.092c-.84 0-1.522-.647-1.522-1.446V22.412c0-.8.682-1.446 1.522-1.446h5.44c.842 0 1.522.647 1.522 1.446v1.929c0 .8.412.928.977.337 2.842-2.97 6.309-4.455 10.401-4.455 2.015 0 3.857.346 5.526 1.036 1.668.69 2.931 1.57 3.787 2.642a9.369 9.369 0 0 1 1.788 3.647c.336 1.36.505 3.307.505 5.842v14.337h-.002Z" fill="currentColor"/></svg>