<svg viewBox="0 0 264 127" fill="none" xmlns="http://www.w3.org/2000/svg" preserveAspectRatio="xMidYMid meet">
<path d="M261.201 107.086C261.201 107.086 261.192 107.077 261.189 107.071C261.022 106.868 261.101 106.551 261.338 106.445C262.941 105.733 263.306 105.03 263.203 103.068C263.06 100.396 262.108 98.0792 260.24 96.1727C255.812 91.6474 251.411 87.0973 246.946 82.6125C246.018 81.6826 244.951 80.9081 243.777 80.3327C238.746 77.8726 233.521 77.8788 228.244 79.437C225.799 80.1585 223.694 81.4835 222.076 83.6419C221.933 83.8347 221.654 83.8534 221.486 83.6824C220.321 82.5098 219.205 81.4461 218.186 80.2923C217.265 79.2504 216.215 78.8617 214.853 78.8803C210.06 78.9363 205.266 78.902 200.473 78.902H198.946C198.8 78.902 198.663 78.8181 198.596 78.6843C197.714 76.9707 196.89 75.3627 196.072 73.7703C195.987 73.6055 196.023 73.4034 196.16 73.279C196.334 73.1203 196.461 73.0053 196.586 72.8871C199.643 70.0569 200.71 66.561 199.962 62.437C199.53 60.0608 198.371 58.0922 196.741 56.4096C192.565 52.1051 188.368 47.8193 184.162 43.5429C182.477 41.8292 180.53 40.5136 178.158 40.0596C176.871 39.8107 175.548 39.677 174.241 39.6615C169.688 39.6148 165.132 39.6428 160.579 39.6428C159.919 39.6428 159.259 39.6117 158.602 39.6521C156.664 39.7703 155.813 40.6909 155.764 42.6783C155.752 43.1386 155.746 43.602 155.734 44.1525C155.727 44.507 155.311 44.6812 155.064 44.4386C154.024 43.4185 153.103 42.5663 152.312 41.5991C151.089 40.1031 149.632 39.5464 147.744 39.6117C144.632 39.7237 141.512 39.6428 138.397 39.6428C134.444 39.6428 130.487 39.6614 126.533 39.6365C124.306 39.621 123.269 40.9552 123.391 42.7436C123.391 42.7436 123.391 42.7467 123.391 42.7498C123.412 43.1106 122.974 43.3003 122.719 43.0484C121.992 42.3299 121.317 41.6861 120.711 40.9801C119.845 39.9725 118.786 39.6117 117.518 39.6365C115.72 39.6708 113.923 39.6428 112.126 39.6459C111.286 39.6459 110.447 39.6335 109.61 39.6739C108.269 39.7423 107.369 40.4141 106.979 41.7639C106.861 42.1744 106.715 42.5757 106.557 43.0204C106.462 43.2879 106.131 43.375 105.924 43.1853C105.766 43.0422 105.62 42.9116 105.48 42.7809C95.6075 33.4972 85.7077 24.2382 75.8778 14.9078C72.5869 11.7821 69.4573 8.47611 66.276 5.23224C64.15 3.06447 61.6712 1.54979 58.7667 0.759819C55.418 -0.151451 52.0208 -0.182501 48.6296 0.346223C44.7761 0.946479 41.4396 2.60416 38.9305 5.76095C38.5685 6.21814 38.234 6.69706 37.872 7.20402C37.7321 7.39996 37.4584 7.428 37.285 7.26317C37.0174 7.01436 36.768 6.78107 36.5277 6.53848C34.9553 4.94298 33.3616 3.36615 31.8287 1.72711C31.0258 0.868708 30.1346 0.479892 28.9637 0.510993C26.6279 0.573196 24.289 0.514124 21.9532 0.532785C19.8728 0.548336 19.0608 1.39117 19.0304 3.55583C19.0121 4.78122 19.0212 6.00665 19.0243 7.39377C19.0243 7.74832 18.6107 7.93181 18.3582 7.69233C18.0358 7.38443 17.7682 7.12942 17.5097 6.86506C15.8095 5.13893 14.1154 3.40342 12.4153 1.67729C11.7644 1.01795 11.0679 0.504782 10.0673 0.520333C7.55201 0.554544 5.03371 0.495476 2.51844 0.545238C0.985562 0.576339 0.13092 1.50936 0.030553 3.09242C0.0123044 3.39722 0.0244688 3.7051 0.0244688 4.0099C0.0244688 12.6499 0.0487997 21.2899 0.0001368 29.9298C-0.00898749 31.3356 0.438104 32.3681 1.40528 33.3323C4.19427 36.1096 6.92852 38.9492 9.67797 41.7701C10.0186 42.1185 10.344 42.4855 10.6847 42.8618C10.8124 43.0049 10.8246 43.2194 10.7151 43.3749C7.46685 48.0184 7.32086 52.6711 10.3957 57.355C10.5448 57.582 10.4353 57.893 10.1768 57.9708C10.0855 57.9988 10.0004 58.0237 9.91824 58.0548C8.32758 58.627 7.88961 59.19 7.89569 60.8601C7.89873 61.8336 7.93827 62.8258 8.11163 63.7806C8.54048 66.1381 9.70534 68.0788 11.369 69.7769C16.0802 74.5821 20.7427 79.437 25.5786 84.4319C25.6516 84.5065 25.6941 84.6091 25.6941 84.718V86.3291C25.6941 93.6224 25.7154 100.912 25.6759 108.206C25.6668 109.593 26.0743 110.647 27.0476 111.627C31.2265 115.826 35.372 120.055 39.4749 124.335C40.4816 125.386 41.5613 125.809 42.9756 125.797C48.4897 125.747 54.0007 125.787 59.5149 125.766C59.8312 125.766 60.1475 125.75 60.4638 125.731C60.6706 125.75 60.8805 125.763 61.0934 125.763H66.9968C70.6313 125.763 73.621 122.948 73.9951 119.334C74.6916 120.059 75.3759 120.768 76.0572 121.477C77.9064 123.396 80.1175 124.727 82.648 125.417C85.0781 126.08 87.5234 126.347 89.9809 126.232C90.2363 126.26 90.4979 126.276 90.7625 126.276H95.3581C99.7803 126.276 103.488 123.153 104.492 118.948C106.146 120.628 107.91 122.363 109.58 124.195C110.65 125.371 111.852 125.809 113.397 125.8C120.167 125.75 126.94 125.778 133.711 125.778C134.069 125.778 134.431 125.797 134.787 125.759C136.354 125.585 137.141 124.777 137.324 123.181C137.348 122.976 137.369 122.771 137.4 122.506C137.436 122.164 137.85 122.024 138.081 122.273C138.692 122.929 139.203 123.467 139.66 124.049C140.727 125.417 142.087 125.825 143.769 125.806C150.42 125.741 157.072 125.778 163.723 125.778C164.143 125.778 164.566 125.803 164.98 125.759C166.546 125.591 167.346 124.777 167.528 123.194C167.553 122.985 167.574 122.774 167.604 122.5C167.641 122.158 168.054 122.015 168.286 122.267C168.894 122.926 169.402 123.461 169.855 124.043C170.922 125.411 172.276 125.825 173.961 125.809C180.29 125.75 186.619 125.775 192.949 125.781C193.046 125.794 193.143 125.8 193.244 125.8H199.889C201.541 125.8 202.876 124.431 202.876 122.746V118.622C202.876 118.261 203.305 118.08 203.554 118.335C205.558 120.388 207.511 122.4 209.451 124.425C210.358 125.371 211.358 125.834 212.639 125.794C213.956 125.753 215.276 125.784 216.593 125.784C217.757 125.784 218.925 125.825 220.09 125.775C220.112 125.775 220.133 125.775 220.151 125.775C220.261 125.79 220.373 125.8 220.489 125.8H227.134C228.786 125.8 230.121 124.431 230.121 122.746V116.762C230.121 116.401 230.547 116.221 230.796 116.476C232.499 118.217 234.199 119.959 235.897 121.707C237.317 123.172 238.99 124.176 240.869 124.898C242.916 125.685 245.042 125.993 247.189 126.164C250.626 126.44 254.02 126.173 257.235 124.773C264.246 121.722 266.214 112.924 261.21 107.095L261.201 107.086Z" fill="black"/>
<path d="M21.9013 30.7787L10.5202 17.3304V30.7787H2.52734V3.07666H10.1279L21.5089 16.7271V3.07666H29.5018V30.7787H21.9013Z" fill="black"/>
<path d="M63.5644 6.25555C66.1101 8.70012 67.3844 12.2549 67.3844 16.9264C67.3844 21.5978 66.1101 25.1558 63.5644 27.5973C61.0187 30.0418 57.4085 31.261 52.7369 31.261C48.0653 31.261 44.4612 30.0481 41.9277 27.616C39.3941 25.1869 38.1289 21.6227 38.1289 16.9264C38.1289 12.2301 39.3941 8.66589 41.9277 6.23687C44.4612 3.80785 48.0653 2.5918 52.7369 2.5918C57.4085 2.5918 61.0187 3.81409 63.5644 6.25555ZM48.4819 10.9674C47.5117 12.1212 47.0251 13.6794 47.0251 15.6388V18.2171C47.0251 20.1765 47.5117 21.7347 48.4819 22.8886C49.4522 24.0424 50.8695 24.6209 52.7339 24.6209C54.5983 24.6209 56.0216 24.0424 57.0071 22.8886C57.9925 21.7347 58.4852 20.1765 58.4852 18.2171V15.6388C58.4852 13.6794 57.9925 12.1212 57.0071 10.9674C56.0216 9.81352 54.5983 9.23501 52.7339 9.23501C50.8695 9.23501 49.4522 9.81352 48.4819 10.9674Z" fill="black"/>
<path d="M21.9013 30.7787L10.5202 17.3304V30.7787H2.52734V3.07666H10.1279L21.5089 16.7271V3.07666H29.5018V30.7787H21.9013Z" fill="#6AD2C8"/>
<path d="M63.5644 6.25555C66.1101 8.70012 67.3844 12.2549 67.3844 16.9264C67.3844 21.5978 66.1101 25.1558 63.5644 27.5973C61.0187 30.0418 57.4085 31.261 52.7369 31.261C48.0653 31.261 44.4612 30.0481 41.9277 27.616C39.3941 25.1869 38.1289 21.6227 38.1289 16.9264C38.1289 12.2301 39.3941 8.66589 41.9277 6.23687C44.4612 3.80785 48.0653 2.5918 52.7369 2.5918C57.4085 2.5918 61.0187 3.81409 63.5644 6.25555ZM48.4819 10.9674C47.5117 12.1212 47.0251 13.6794 47.0251 15.6388V18.2171C47.0251 20.1765 47.5117 21.7347 48.4819 22.8886C49.4522 24.0424 50.8695 24.6209 52.7339 24.6209C54.5983 24.6209 56.0216 24.0424 57.0071 22.8886C57.9925 21.7347 58.4852 20.1765 58.4852 18.2171V15.6388C58.4852 13.6794 57.9925 12.1212 57.0071 10.9674C56.0216 9.81352 54.5983 9.23501 52.7339 9.23501C50.8695 9.23501 49.4522 9.81352 48.4819 10.9674Z" fill="#6AD2C8"/>
<path d="M44.3008 69.9794V42.2773H53.0023V69.9794H44.3008Z" fill="#6AD2C8"/>
<path d="M63.1632 42.2739H71.8647V62.891H85.7641V69.9791H63.1602V42.277L63.1632 42.2739Z" fill="#6AD2C8"/>
<path d="M98.7212 69.9794L89.1133 42.2773H98.4079L103.843 60.8013H104.001L109.476 42.2773H118.375L108.807 69.9794H98.7272H98.7212Z" fill="#6AD2C8"/>
<path d="M125.93 42.2739H149.358V48.9172H134.631V52.7427H149.394V59.106H134.631V63.3327H149.635V69.9759H125.93V42.2739Z" fill="#6AD2C8"/>
<path d="M182.67 55.3617C181.776 56.7302 180.477 57.7378 178.771 58.3816L184.796 69.9794H175.03L170.225 59.8714H166.995V69.9794H158.293V42.2773H174.872C176.815 42.2773 178.476 42.6599 179.854 43.425C181.231 44.1901 182.269 45.2227 182.965 46.5258C183.662 47.829 184.008 49.2441 184.008 50.7743C184.008 52.4662 183.561 53.9964 182.67 55.3648V55.3617ZM174.44 49.3219C173.969 48.8398 173.391 48.5972 172.706 48.5972H166.998V53.7102H172.706C173.388 53.7102 173.965 53.4614 174.44 52.9638C174.911 52.4662 175.149 51.8566 175.149 51.1319C175.149 50.4072 174.911 49.8039 174.44 49.3187V49.3219Z" fill="#6AD2C8"/>
<path d="M34.023 56.2076C32.9738 55.0817 31.745 54.27 30.3399 53.7724C28.9347 53.2747 27.1433 52.7989 24.9657 52.3417C23.1013 51.9654 21.7509 51.6046 20.9084 51.2532C20.069 50.9049 19.6492 50.3668 19.6492 49.6422C19.6492 49.4773 19.6827 49.3218 19.7466 49.1756C20.0903 47.9316 21.5106 47.4277 23.2351 47.4277C25.2151 47.4277 26.8209 48.7122 26.8209 50.2952C26.8209 50.4663 26.8027 50.6374 26.7662 50.8022L26.7419 50.796V50.8085H34.8929V50.3264C34.8412 47.5086 33.6976 45.3813 31.4682 43.9444C29.2358 42.5075 26.3891 41.7891 22.9249 41.7891C19.4607 41.7891 16.4983 42.5075 14.202 43.9444C11.9058 45.3813 10.7561 47.6143 10.7561 50.6498C10.7561 52.7181 11.2944 54.354 12.3711 55.5638C13.4478 56.7705 14.7069 57.6383 16.1516 58.1608C17.5963 58.6833 19.4211 59.1872 21.6262 59.6724C23.4389 60.0487 24.7436 60.4032 25.5435 60.7391C26.3434 61.075 26.7449 61.5788 26.7449 62.2506C26.7449 62.6394 26.6476 62.9628 26.4529 63.2148C25.7108 64.406 24.3817 65.1835 22.8093 65.1835C20.44 65.1835 18.5209 63.3641 18.5209 61.1185C18.5209 60.9444 18.533 60.7765 18.5543 60.6085C18.5543 60.6085 18.5543 60.6023 18.5543 60.5992H10.3242C10.3242 64.2785 11.4982 66.8412 13.8492 68.2905C16.1972 69.7399 19.485 70.4645 23.7126 70.4645C27.3349 70.4645 30.2304 69.6745 32.3959 68.0883C34.5614 66.5053 35.6441 64.0763 35.6441 60.8013C35.6168 58.8699 35.0784 57.3397 34.0291 56.2107L34.023 56.2076Z" fill="#6AD2C8"/>
<path d="M50.0284 82.3427C51.1689 82.9211 52.0753 83.7329 52.7444 84.7779C53.4135 85.826 53.7481 86.9923 53.7481 88.2799C53.7481 91.6886 52.2395 93.8377 49.2194 94.7241V94.8859C52.6592 95.6914 54.3777 97.9991 54.3777 101.812C54.3777 103.261 54.0279 104.543 53.3344 105.656C52.638 106.77 51.686 107.637 50.4785 108.253C49.2711 108.872 47.945 109.18 46.5003 109.18H28.2305V81.478H46.2662C47.6318 81.478 48.8848 81.7673 50.0254 82.3427H50.0284ZM36.935 92.2671H42.9206C43.4985 92.2671 43.976 92.0587 44.3592 91.6419C44.7394 91.2252 44.931 90.7089 44.931 90.0931V89.6919C44.931 89.1009 44.7333 88.5971 44.3409 88.1804C43.9486 87.7636 43.4741 87.5552 42.9236 87.5552H36.9381V92.2671H36.935ZM36.935 102.736H43.5502C44.128 102.736 44.6055 102.527 44.9888 102.111C45.3689 101.694 45.5605 101.178 45.5605 100.562V100.158C45.5605 99.5417 45.3689 99.0223 44.9888 98.6087C44.6086 98.1919 44.128 97.9836 43.5502 97.9836H36.935V102.736Z" fill="#6AD2C8"/>
<path d="M85.252 106.683C82.9162 108.67 79.5949 109.662 75.2882 109.662C70.9816 109.662 67.6543 108.67 65.3063 106.683C62.9552 104.695 61.7812 101.809 61.7812 98.0241V81.4751H70.4828V97.9029C70.4828 99.461 70.8903 100.702 71.7024 101.629C72.5145 102.556 73.6976 103.019 75.2457 103.019C76.7938 103.019 77.983 102.549 78.8102 101.61C79.6375 100.671 80.0511 99.4362 80.0511 97.906V81.4782H88.7527V98.0272C88.7527 101.812 87.5848 104.699 85.2489 106.686L85.252 106.683Z" fill="#6AD2C8"/>
<path d="M98.5226 81.4751H107.224V102.092H121.123V109.18H98.5195V81.4782L98.5226 81.4751Z" fill="#6AD2C8"/>
<path d="M128.723 81.4751H137.424V102.092H151.324V109.18H128.723V81.4782V81.4751Z" fill="#6AD2C8"/>
<path d="M158.926 81.4751H182.354V88.1184H167.627V91.9439H182.509V98.3072H167.627V102.534H182.631V109.177H158.926V81.4751Z" fill="#6AD2C8"/>
<path d="M206.886 88.5631V109.18H198.184V88.5631H189.285V81.4751H215.746V88.5631H206.886Z" fill="#6AD2C8"/>
<path d="M246.142 95.4084C245.093 94.2825 243.864 93.4707 242.459 92.9731C241.054 92.4755 239.263 91.9997 237.085 91.5425C235.221 91.1662 233.87 90.8054 233.028 90.454C232.188 90.1056 231.769 89.5675 231.769 88.8428C231.769 88.79 231.772 88.7402 231.778 88.6905C232 87.2753 233.487 86.7062 235.315 86.7062C237.295 86.7062 238.901 87.9907 238.901 89.5738C238.901 89.723 238.886 89.8661 238.858 90.0091H247.009V89.5271C246.954 86.7094 245.814 84.582 243.585 83.1451C241.352 81.7082 238.505 80.9897 235.038 80.9897C231.571 80.9897 228.612 81.7082 226.315 83.1451C224.019 84.582 222.869 86.815 222.869 89.8505C222.869 91.9188 223.408 93.5547 224.484 94.7614C225.561 95.9682 226.82 96.8359 228.265 97.3584C229.71 97.8809 231.534 98.3847 233.739 98.8668C235.549 99.2431 236.857 99.5977 237.657 99.9336C238.457 100.27 238.858 100.773 238.858 101.445C238.858 101.884 238.733 102.235 238.487 102.5C237.733 103.632 236.437 104.362 234.913 104.362C232.544 104.362 230.625 102.543 230.625 100.298C230.625 100.126 230.637 99.9585 230.658 99.7937H222.438C222.438 103.473 223.611 106.036 225.963 107.485C228.31 108.934 231.598 109.659 235.826 109.659C239.448 109.659 242.344 108.869 244.509 107.283C246.675 105.7 247.757 103.271 247.757 99.9958C247.73 98.0644 247.192 96.5342 246.142 95.4053V95.4084Z" fill="#6AD2C8"/>
</svg>
