<svg fill="none" xmlns="http://www.w3.org/2000/svg" viewBox="0 0 1758 160" preserveAspectRatio="xMidYMid meet"><path d="M1749.28 91.437c7.03-4.502 6.73-11.095 5.7-17.603-1.71-10.85-7.29-19.312-16.54-25.416-17.41-11.52-34.88-22.964-52.07-34.802-9.85-6.773-20.26-11.392-32.25-12.655-19.69-2.081-37.98.839-54.05 13.993-4.51-2.984-9.24-5.903-13.72-9.162-3.52-2.56-7.18-3.578-11.56-3.557-28.45.138-56.91.16-85.37 0-6.01-.032-11.5.382-14.77 6.434-2.14-1.38-3.86-2.347-5.43-3.536-2.7-2.049-5.64-2.866-9.04-2.856-26.48.075-52.96.181-79.43-.053-6.37-.053-12.01 3.61-12.35 11.965-.17 4.13-.04 8.281-.04 12.422v14.853c-2.44-1.497-4.11-2.453-5.71-3.514-16.34-10.872-32.62-21.818-49.04-32.562-2.3-1.507-5.2-2.834-7.87-2.92-10.43-.329-20.89-.212-31.33-.106-5.32.064-8.74 2.835-10.12 8.016-.5 1.879-.71 3.896-.73 5.85-.08 7.017-.01 14.046-.05 21.063 0 1.126-.32 2.251-.57 3.96-2.34-1.518-4.14-2.665-5.92-3.843-16.03-10.68-32.03-21.404-48.12-31.978-2.18-1.433-4.84-2.877-7.32-2.951-10.79-.33-21.6-.234-32.41-.106-4.6.053-7.74 2.569-9.41 6.837-.57 1.465-.99 3.005-1.65 5.032-4.96-3.301-9.5-6.508-14.23-9.406-1.92-1.178-4.23-2.346-6.4-2.389-10.8-.244-21.62-.19-32.41-.063-4.88.053-7.98 2.908-9.72 7.304-.49 1.231-.7 2.569-1.11 4.14-4.54-2.994-8.81-5.658-12.9-8.567-2.92-2.081-5.97-3.037-9.57-2.984-9.36.138-18.74.319-28.09-.053-6.37-.254-12.03 3.536-12.42 11.88-.11 2.273-.02 4.566-.02 7.528-2.08-1.296-3.45-2.113-4.78-2.994-5.41-3.567-10.76-7.23-16.22-10.713-5.75-3.652-12.063-5.584-18.901-5.595-21.435-.032-42.87-.053-64.294 0-7.719.021-11.668 3.982-11.721 11.562-.043 7.007 0 14.024 0 21.573-1.773-1.072-3.154-1.837-4.459-2.707-11.095-7.368-22.242-14.672-33.251-22.168-8.303-5.648-17.263-8.62-27.381-8.324-8.281.245-16.573.054-24.854.054-10.988 0-21.977.106-32.954-.043-5.319-.074-8.972 2.028-11.053 6.922-.403.945-1.03 1.794-1.752 3.037-3.206-2.124-6.306-3.94-9.13-6.105-3.748-2.877-7.804-3.918-12.539-3.886-25.215.16-50.429.202-75.644 0-6.137-.053-11.052 1.19-13.759 7.592-2.219-1.444-4.268-2.57-6.073-3.993-3.418-2.686-7.155-3.705-11.529-3.588-9.003.244-18.017.35-27.01-.01-7.474-.309-11.72 3.747-13.196 10.085-.297 1.285-.967 2.485-1.614 4.12-5.882-3.907-11.147-7.676-16.689-10.978-2.527-1.508-5.574-2.91-8.419-2.994-10.797-.35-21.616-.265-32.413-.032-2.357.053-5.043.913-6.944 2.283-4.289 3.09-5.148 7.655-3.598 12.56 1.571 4.968 3.46 9.841 5.116 14.778.361 1.062.372 2.23.68 4.257-2.282-1.454-3.78-2.378-5.245-3.365-13.94-9.269-27.89-18.505-41.766-27.858-2.813-1.89-5.669-2.857-9.067-2.814-9.183.116-18.367.021-27.55.042-8.483.032-11.859 3.207-12.708 11.827-.022.266-.425.489-.935 1.04-5-3.322-10.128-6.613-15.108-10.095-2.771-1.933-5.638-2.878-9.056-2.825-9.364.149-18.749.393-28.092-.053-7.548-.371-13.175 5.34-12.56 12.772.319 3.812.054 7.676.054 12.252-2.558-1.614-4.236-2.622-5.861-3.695-7.357-4.852-14.407-10.287-22.115-14.491-21.509-11.743-43.867-11.583-66.067-2.347-11.795 4.905-19.291 14.163-21.691 27.073-.318 1.699-.891 3.355-1.453 5.457-1.901-1.179-3.42-2.07-4.885-3.047-11.689-7.771-23.324-15.628-35.088-23.294-4.055-2.643-8.249-5.234-12.708-7.06-13.451-5.5-27.445-6.593-41.83-4.618-13.441 1.847-25.268 6.795-34.993 16.414-.743.743-1.593 1.37-2.654 2.272-1.603-.966-3.142-1.837-4.618-2.814-6.158-4.066-12.231-8.27-18.474-12.199-1.911-1.2-4.246-2.356-6.412-2.41a638.841 638.841 0 0 0-30.258-.053c-5.372.128-9.3 4.385-9.703 9.778-.138 1.88-.022 3.77-.022 6.572-7.464-4.98-14.078-9.279-20.575-13.76-2.792-1.92-5.68-2.802-9.077-2.738-8.1.148-16.212 0-24.313.063C4.056 2.405.075 6.343.064 14.316.022 45.106.096 75.895 0 106.683c-.01 4.831 1.922 8.164 5.861 10.776 18.898 12.528 37.711 25.194 56.651 37.648 1.986 1.306 4.65 2.112 7.028 2.176 7.092.191 14.195.191 21.287.138h16.445c5.722 0 10.574-3.748 12.241-8.918a407.382 407.382 0 0 0 9.322 6.052c2.06 1.295 4.533 2.601 6.858 2.675 6.116.191 12.231.212 18.346.18h16.806c7.102 0 12.867-5.765 12.867-12.867v-9.439c6.551 4.438 13.049 8.94 19.833 12.996 5.51 3.291 11.434 6.221 17.539 8.121 8.249 2.569 16.647 3.568 25.087 3.249h17.635c20.479 0 37.328-15.564 39.345-35.513 12.209 8.122 24.079 16.042 35.991 23.92 5.733 3.79 11.838 6.783 18.569 8.461 8.918 2.219 17.899 3.355 26.923 3.1h20.3c10.935 0 20.267-6.901 23.877-16.583 5.988 3.96 11.913 7.835 17.762 11.805 1.211.818 2.432 1.508 3.716 1.986l1.539.478 1.211.201c.499.064.997.096 1.528.085 10.086-.074 20.172.032 30.258-.053.329 0 .648-.011.966-.042h4.014c6.072 0 11.434-3.047 14.64-7.698 2.495 1.657 4.926 3.271 7.347 4.916 2.919 1.986 6.03 2.898 9.618 2.888 25.395-.096 50.791-.022 76.187-.064.488 0 .954-.021 1.411-.053h9.481c7.029 0 13.101-4.077 15.989-10.001 3.769 2.516 7.537 5.011 11.381 7.411 2.176 1.359 4.937 2.473 7.453 2.526 11.88.266 23.771.106 35.662.117.435 0 .86-.021 1.274-.053h10.054c9.608 0 17.422-7.623 17.762-17.135 7.347 4.905 14.682 9.82 22.093 14.619 1.89 1.221 4.247 2.431 6.392 2.442 28.272.159 56.555.138 84.827.074 4.151 0 7.081-2.304 8.939-5.967.542-1.061 1.031-2.144 1.647-3.429 3.45 2.262 6.698 4.204 9.713 6.444 3.047 2.262 6.307 3.143 10.076 3.069l25.926.042c1.359.053 2.644 0 3.843-.159h.361c5.319 0 10.086-2.336 13.346-6.03 1.879 1.316 3.843 2.675 5.934 3.779 2.145 1.136 4.661 2.156 7.029 2.209 11.519.223 23.048.244 34.578.042 8.09-.138 12.815-7.708 9.842-15.288-.488-1.253-1.03-2.495-1.953-4.703 8.992 5.988 17.082 11.349 25.129 16.764 3.047 2.049 6.19 3.365 10.034 3.344 21.43-.117 42.86-.011 64.29-.074.62 0 1.22-.022 1.82-.043h16.69c12.3 0 23.21-5.998 29.94-15.235 3.11 2.092 6.23 4.151 9.42 6.094 4.26 2.612 8.73 5.085 13.4 6.827 9.64 3.577 19.52 4.852 29.49 4.437h17.78c13.58 0 25.46-7.314 31.9-18.207.11.064.22.138.32.212 6.31 4.172 12.67 8.27 18.85 12.623 3.38 2.389 6.88 3.419 11.05 3.398 24.31-.138 48.63-.245 72.94.063 6.21.074 10.89-1.465 14.14-6.816.12-.212.62-.191 1.2-.36 2.09 1.401 4.38 2.823 6.56 4.405 2.57 1.869 5.32 2.697 8.54 2.687 25.76-.085 51.52-.096 77.27.01 3.97.021 6.97-1.359 9.38-4.353.77-.955 1.56-1.9 2.47-3.015 1.95 1.232 3.89 2.219 5.54 3.557 3.7 3.015 7.84 3.843 12.54 3.822 25.94-.149 51.88-.053 77.81-.085.56 0 1.12-.022 1.64-.053h5.97c9.81 0 18.15-6.36 21.1-15.182a1827.98 1827.98 0 0 1 18.38 12.326c2.95 2.017 5.95 3.025 9.55 2.962 9.19-.149 27.64-.032 27.64-.032.85.043 1.68 0 2.47-.085h5.01c12.29 0 22.24-9.959 22.24-22.242v-5.913c9.35 6.2 18.69 12.389 27.97 18.685 6.2 4.204 12.92 7.166 20.14 8.865 4.35 1.019 8.85 1.444 13.3 2.028 12.71 1.666 25.13.488 37.16-3.992 29.26-10.903 32.46-46.555 17.57-63.287l-.02-.01Z" fill="#000"/><path d="M77.65 107.85 38.133 62.177v45.673H10.371V13.765h26.394L76.28 60.118V13.765h27.762v94.085H77.65ZM222.322 24.573c8.844 8.291 13.261 20.373 13.261 36.235 0 15.861-4.427 27.943-13.261 36.234-8.843 8.292-21.382 12.443-37.604 12.443-16.222 0-28.739-4.119-37.54-12.379-8.801-8.249-13.198-20.352-13.198-36.309 0-15.957 4.397-28.05 13.198-36.31 8.801-8.248 21.307-12.379 37.54-12.379s28.761 4.152 37.604 12.444v.02ZM169.95 40.572c-3.376 3.918-5.064 9.205-5.064 15.861v8.749c0 6.656 1.688 11.944 5.064 15.861 3.376 3.918 8.292 5.882 14.768 5.882 6.476 0 11.413-1.964 14.843-5.882 3.418-3.917 5.128-9.205 5.128-15.861v-8.749c0-6.656-1.71-11.943-5.128-15.861-3.419-3.918-8.367-5.882-14.843-5.882-6.476 0-11.392 1.964-14.768 5.882Z" fill="#000"/><path d="M77.65 107.85 38.133 62.177v45.673H10.371V13.765h26.394L76.28 60.118V13.765h27.762v94.085H77.65ZM222.322 24.573c8.844 8.291 13.261 20.373 13.261 36.235 0 15.861-4.427 27.943-13.261 36.234-8.843 8.292-21.382 12.443-37.604 12.443-16.222 0-28.739-4.119-37.54-12.379-8.801-8.249-13.198-20.352-13.198-36.309 0-15.957 4.397-28.05 13.198-36.31 8.801-8.248 21.307-12.379 37.54-12.379s28.761 4.152 37.604 12.444v.02ZM169.95 40.572c-3.376 3.918-5.064 9.205-5.064 15.861v8.749c0 6.656 1.688 11.944 5.064 15.861 3.376 3.918 8.292 5.882 14.768 5.882 6.476 0 11.413-1.964 14.843-5.882 3.418-3.917 5.128-9.205 5.128-15.861v-8.749c0-6.656-1.71-11.943-5.128-15.861-3.419-3.918-8.367-5.882-14.843-5.882-6.476 0-11.392 1.964-14.768 5.882Z" fill="currentColor"/><path d="M395.621 107.85V13.765h30.226v94.085h-30.226ZM461.125 13.775h30.226v70.018h48.274v24.068h-78.49V13.775h-.01ZM584.61 107.85l-33.368-94.085h32.274l18.867 62.904h.552l19.004-62.904h30.905l-33.231 94.085H584.61ZM679.098 13.775h81.366v22.561h-51.141v12.995h51.269v21.605h-51.269V85.29h52.097v22.56h-82.322V13.765v.01ZM876.146 58.217c-3.1 4.65-7.613 8.069-13.537 10.256l20.926 39.377h-33.909l-16.679-34.324h-11.212v34.324H791.52V13.765h57.575c6.741 0 12.517 1.295 17.294 3.896 4.789 2.601 8.387 6.105 10.808 10.532 2.41 4.427 3.62 9.226 3.62 14.428 0 5.744-1.55 10.936-4.65 15.586l-.021.01Zm-28.581-20.511c-1.645-1.646-3.641-2.464-6.019-2.464h-19.832v17.37h19.832c2.367 0 4.374-.84 6.019-2.528 1.646-1.688 2.464-3.758 2.464-6.22 0-2.464-.818-4.513-2.464-6.158Z" fill="#000"/><path d="M395.621 107.85V13.765h30.226v94.085h-30.226ZM461.125 13.775h30.226v70.018h48.274v24.068h-78.49V13.775h-.01ZM584.61 107.85l-33.368-94.085h32.274l18.867 62.904h.552l19.004-62.904h30.905l-33.231 94.085H584.61ZM679.098 13.775h81.366v22.561h-51.141v12.995h51.269v21.605h-51.269V85.29h52.097v22.56h-82.322V13.765v.01ZM876.146 58.217c-3.1 4.65-7.613 8.069-13.537 10.256l20.926 39.377h-33.909l-16.679-34.324h-11.212v34.324H791.52V13.765h57.575c6.741 0 12.517 1.295 17.294 3.896 4.789 2.601 8.387 6.105 10.808 10.532 2.41 4.427 3.62 9.226 3.62 14.428 0 5.744-1.55 10.936-4.65 15.586l-.021.01Zm-28.581-20.511c-1.645-1.646-3.641-2.464-6.019-2.464h-19.832v17.37h19.832c2.367 0 4.374-.84 6.019-2.528 1.646-1.688 2.464-3.758 2.464-6.22 0-2.464-.818-4.513-2.464-6.158Z" fill="currentColor"/><path d="M1001.69 16.716c3.97 1.964 7.11 4.714 9.44 8.27 2.32 3.557 3.48 7.517 3.48 11.902 0 11.583-5.25 18.877-15.726 21.881v.552c11.946 2.74 17.906 10.574 17.906 23.516 0 4.926-1.21 9.28-3.62 13.06-2.42 3.779-5.72 6.719-9.91 8.821-4.195 2.102-8.802 3.143-13.814 3.143H926V13.775h62.628c4.736 0 9.099.977 13.062 2.941Zm-45.475 33.708h20.788c2.006 0 3.674-.7 4.99-2.123 1.316-1.412 1.985-3.164 1.985-5.266v-1.37c0-2.006-.679-3.715-2.048-5.127-1.37-1.412-3.005-2.124-4.927-2.124h-20.788v16.01Zm0 35.556h22.976c2.006 0 3.673-.701 4.99-2.124 1.316-1.412 1.985-3.163 1.985-5.265v-1.37c0-2.092-.658-3.854-1.985-5.266s-2.984-2.123-4.99-2.123h-22.976V85.979ZM1124 99.378c-8.11 6.753-19.64 10.118-34.6 10.118-14.95 0-26.5-3.376-34.66-10.118-8.16-6.741-12.24-16.54-12.24-29.397V13.776h30.23v55.79c0 5.287 1.41 9.502 4.23 12.645 2.83 3.143 6.92 4.714 12.31 4.714 5.38 0 9.5-1.593 12.38-4.789 2.87-3.195 4.31-7.388 4.31-12.58V13.765h30.22V69.97c0 12.857-4.05 22.656-12.16 29.398l-.02.01ZM1170.09 13.775h30.23v70.018h48.27v24.068h-78.49V13.775h-.01ZM1274.97 13.775h30.23v70.018h48.27v24.068h-78.49V13.775h-.01ZM1379.86 13.775h81.36v22.561h-51.14v12.995h51.67v21.605h-51.67V85.29h52.1v22.56h-82.32V13.765v.01ZM1546.41 37.843v70.018h-30.21V37.844h-30.91V13.775h91.9v24.069h-30.78Z" fill="#000"/><path d="M1682.58 61.02c-3.63-3.812-7.89-6.561-12.74-8.25-4.86-1.677-11.06-3.29-18.6-4.84-6.46-1.275-11.14-2.496-14.04-3.685-2.9-1.178-4.36-2.993-4.36-5.456 0-.553.12-1.084.33-1.583 1.19-4.204 6.1-5.913 12.07-5.913 6.86 0 12.41 4.353 12.41 9.714 0 .584-.06 1.157-.19 1.71l-.08-.022v.043h28.22v-1.635c-.18-9.545-4.14-16.743-11.86-21.606-7.73-4.862-17.58-7.293-29.58-7.293s-22.24 2.43-30.2 7.293c-7.95 4.863-11.92 12.433-11.92 22.7 0 6.996 1.86 12.537 5.59 16.625 3.72 4.087 8.09 7.018 13.09 8.79 5 1.774 11.31 3.473 18.95 5.108 6.27 1.274 10.78 2.473 13.57 3.61 2.77 1.135 4.16 2.844 4.16 5.106 0 1.316-.34 2.41-1.01 3.26-2.57 4.033-7.18 6.667-12.61 6.667-8.2 0-14.85-6.158-14.85-13.76 0-.584.05-1.157.12-1.73v-.032h-28.48c0 12.453 4.06 21.127 12.19 26.032 8.14 4.905 19.52 7.357 34.15 7.357 12.54 0 22.56-2.675 30.05-8.047 7.5-5.361 11.25-13.579 11.25-24.673-.1-6.54-1.96-11.722-5.59-15.544l-.04.054Z" fill="#fff"/><path d="M1001.69 16.716c3.97 1.964 7.11 4.714 9.44 8.27 2.32 3.557 3.48 7.517 3.48 11.902 0 11.583-5.25 18.877-15.726 21.881v.552c11.946 2.74 17.906 10.574 17.906 23.516 0 4.926-1.21 9.28-3.62 13.06-2.42 3.779-5.72 6.719-9.91 8.821-4.195 2.102-8.802 3.143-13.814 3.143H926V13.775h62.628c4.736 0 9.099.977 13.062 2.941Zm-45.475 33.708h20.788c2.006 0 3.674-.7 4.99-2.123 1.316-1.412 1.985-3.164 1.985-5.266v-1.37c0-2.006-.679-3.715-2.048-5.127-1.37-1.412-3.005-2.124-4.927-2.124h-20.788v16.01Zm0 35.556h22.976c2.006 0 3.673-.701 4.99-2.124 1.316-1.412 1.985-3.163 1.985-5.265v-1.37c0-2.092-.658-3.854-1.985-5.266s-2.984-2.123-4.99-2.123h-22.976V85.979ZM1124 99.378c-8.11 6.753-19.64 10.118-34.6 10.118-14.95 0-26.5-3.376-34.66-10.118-8.16-6.741-12.24-16.54-12.24-29.397V13.776h30.23v55.79c0 5.287 1.41 9.502 4.23 12.645 2.83 3.143 6.92 4.714 12.31 4.714 5.38 0 9.5-1.593 12.38-4.789 2.87-3.195 4.31-7.388 4.31-12.58V13.765h30.22V69.97c0 12.857-4.05 22.656-12.16 29.398l-.02.01ZM1170.09 13.775h30.23v70.018h48.27v24.068h-78.49V13.775h-.01ZM1274.97 13.775h30.23v70.018h48.27v24.068h-78.49V13.775h-.01ZM1379.86 13.775h81.36v22.561h-51.14v12.995h51.67v21.605h-51.67V85.29h52.1v22.56h-82.32V13.765v.01ZM1546.41 37.843v70.018h-30.21V37.844h-30.91V13.775h91.9v24.069h-30.78ZM1682.58 61.02c-3.63-3.812-7.89-6.561-12.74-8.25-4.86-1.677-11.06-3.29-18.6-4.84-6.46-1.275-11.14-2.496-14.04-3.685-2.9-1.178-4.36-2.993-4.36-5.456 0-.553.12-1.084.33-1.583 1.19-4.204 6.1-5.913 12.07-5.913 6.86 0 12.41 4.353 12.41 9.714 0 .584-.06 1.157-.19 1.71l-.08-.022v.043h28.22v-1.635c-.18-9.545-4.14-16.743-11.86-21.606-7.73-4.862-17.58-7.293-29.58-7.293s-22.24 2.43-30.2 7.293c-7.95 4.863-11.92 12.433-11.92 22.7 0 6.996 1.86 12.537 5.59 16.625 3.72 4.087 8.09 7.018 13.09 8.79 5 1.774 11.31 3.473 18.95 5.108 6.27 1.274 10.78 2.473 13.57 3.61 2.77 1.135 4.16 2.844 4.16 5.106 0 1.316-.34 2.41-1.01 3.26-2.57 4.033-7.18 6.667-12.61 6.667-8.2 0-14.85-6.158-14.85-13.76 0-.584.05-1.157.12-1.73v-.032h-28.48c0 12.453 4.06 21.127 12.19 26.032 8.14 4.905 19.52 7.357 34.15 7.357 12.54 0 22.56-2.675 30.05-8.047 7.5-5.361 11.25-13.579 11.25-24.673-.1-6.54-1.96-11.722-5.59-15.544l-.04.054ZM359.854 61.116c-3.631-3.812-7.888-6.562-12.74-8.25-4.862-1.677-11.062-3.29-18.6-4.84-6.455-1.275-11.138-2.496-14.036-3.685-2.909-1.178-4.363-2.994-4.363-5.457 0-.552.117-1.083.329-1.582 1.189-4.204 6.105-5.913 12.071-5.913 6.859 0 12.412 4.353 12.412 9.714 0 .584-.065 1.157-.192 1.71l-.085-.022v.043h28.219v-1.635c-.18-9.545-4.14-16.743-11.859-21.605-7.729-4.863-17.58-7.294-29.577-7.294-11.997 0-22.243 2.431-30.195 7.294-7.952 4.862-11.922 12.432-11.922 22.698 0 6.997 1.858 12.539 5.584 16.626 3.727 4.088 8.09 7.018 13.091 8.79 5 1.774 11.317 3.472 18.95 5.107 6.275 1.274 10.787 2.474 13.569 3.61 2.771 1.136 4.162 2.845 4.162 5.107 0 1.316-.34 2.41-1.009 3.259-2.569 4.034-7.177 6.667-12.613 6.667-8.196 0-14.842-6.157-14.842-13.759 0-.584.042-1.157.117-1.73v-.032H277.84c0 12.453 4.066 21.127 12.199 26.032 8.132 4.905 19.513 7.357 34.143 7.357 12.539 0 22.561-2.675 30.056-8.047 7.495-5.362 11.243-13.58 11.243-24.674-.096-6.54-1.953-11.72-5.584-15.542l-.043.053Z" fill="currentColor"/></svg>