<svg fill="none" xmlns="http://www.w3.org/2000/svg" viewBox="0 0 53 81"><g clip-path="url(#clip0_393_3959)"><path d="m34.626 74.052 2.662-1.211-1.142-2.692-1.801-4.244v-.001c-1.74-4.112-2.987-7.064-4.25-10.05-.75-1.78-1.507-3.57-2.376-5.625 1.829-.12 3.653-.242 5.48-.363l7.704-.51 6.816-.452-4.944-4.713a2102845.89 2102845.89 0 0 1-35.62-33.954l-5.07-4.833v64.335l5.113-5.07.449-.444 8.958-8.884 2.761 6.524 5.588 13.203 1.2 2.838 2.805-1.277 4.017-1.827 1.65-.75Z" fill="#E52825" stroke="#6AD2C8" stroke-width="6"/></g><defs><clipPath id="clip0_393_3959"><path fill="#fff" transform="translate(0 .399)" d="M0 0h52.908v80.442H0z"/></clipPath></defs></svg>