<svg fill="none" xmlns="http://www.w3.org/2000/svg" viewBox="0 0 52 43"><path d="M25.386 0c1.128.539 1.384 1.459 1.381 2.644-.03 12.64-.028 25.282-.002 37.921.002 1.183-.377 2-1.498 2.435h-.962c-.328-.218-.667-.42-.983-.655-4.617-3.401-9.228-6.809-13.853-10.198a1.793 1.793 0 0 0-.976-.323c-1.963-.03-3.93-.063-5.89.004C1.42 31.868.533 31.54 0 30.46V11.945c.524-1.094 1.416-1.42 2.595-1.382 1.962.06 3.928.032 5.894 0a2 2 0 0 0 1.043-.323c1.854-1.257 3.677-2.555 5.517-3.83 3.08-2.14 6.167-4.275 9.254-6.41h1.083ZM3.89 14.408V27.99h.685c1.564 0 3.127.018 4.69-.007.717-.012 1.316.19 1.892.618 3.674 2.732 7.363 5.443 11.046 8.16.195.145.396.277.632.444V5.65c-.297.204-.508.348-.718.495-3.689 2.573-7.382 5.145-11.061 7.73a2.834 2.834 0 0 1-1.739.537c-1.584-.016-3.166-.004-4.75-.004h-.68.003ZM51.172 21.077c-.085 7.406-2.512 13.948-7.375 19.584-1.172 1.359-2.989 1.33-3.962-.033-.667-.936-.576-2.098.271-3.069 1.786-2.046 3.277-4.29 4.264-6.813 3.53-9.018 2.367-17.43-3.454-25.194-.756-1.008-.887-2.021-.325-2.932.9-1.46 2.911-1.554 4.02-.172a29.456 29.456 0 0 1 5.325 10.15 29.363 29.363 0 0 1 1.233 8.48h.003Z" fill="currentColor"/><path d="M42.98 21.323c-.056 4.916-1.664 9.506-4.889 13.525-.69.86-1.71 1.15-2.69.82-.961-.325-1.691-1.198-1.619-2.204.042-.576.267-1.224.62-1.68 2.575-3.336 3.853-7.083 3.731-11.278-.1-3.452-1.177-6.6-3.2-9.416-.449-.627-.746-1.28-.575-2.058.22-1.003.83-1.668 1.849-1.9 1.076-.246 1.93.137 2.563 1.015 2.794 3.873 4.194 8.193 4.21 13.176Z" fill="currentColor"/><path d="M35.155 21.46c-.017 2.398-.876 5.085-2.6 7.488-.738 1.024-2.006 1.31-3.092.755-1.06-.542-1.573-1.768-1.178-2.888.099-.276.265-.534.427-.783 2.052-3.166 2.15-6.4.379-9.715-.185-.346-.37-.718-.436-1.096-.196-1.141.461-2.214 1.54-2.605 1.09-.397 2.254-.02 2.879.988 1.388 2.235 2.085 4.674 2.083 7.859l-.002-.003Z" fill="currentColor"/></svg>