<svg fill="none" xmlns="http://www.w3.org/2000/svg" viewBox="0 0 47 43"><g clip-path="url(#clip0_395_7619)" fill="currentColor"><path d="M4.173 0c.548.446 1.138.853 1.64 1.347 12.64 12.545 25.256 25.115 37.926 37.63 1.417 1.4 1.455 3.187-.508 4.023h-.955c-.518-.39-1.087-.727-1.545-1.178-12.71-12.61-25.407-25.233-38.11-37.854-.17-.167-.344-.332-.504-.509-.96-1.07-.664-2.62.62-3.264.123-.06.24-.13.36-.195h1.076ZM46.339 23.173c-.2 1.212-.36 2.434-.604 3.638-.627 3.092-1.812 5.965-3.471 8.646-.081.132-.181.253-.274.386l-3.127-3.218c1.078-1.849 1.954-3.893 2.446-6.075 1.631-7.21.219-13.768-4.283-19.646-.642-.836-.774-1.76-.303-2.555.48-.81 1.202-1.199 2.147-1.11.65.06 1.155.387 1.556.896 3.102 3.933 5.002 8.377 5.678 13.342.074.545.156 1.091.235 1.64v4.06-.004ZM20.758 35.859V23.437c.184.147.31.226.411.328.92.91 1.85 1.81 2.742 2.746.18.188.316.509.318.769.018 3.96.01 7.922.016 11.882 0 .786-.274 1.413-.994 1.761-.697.34-1.343.18-1.954-.276-4.181-3.115-8.37-6.217-12.547-9.337-.371-.276-.734-.409-1.198-.404-1.852.021-3.701.012-5.553.007C.687 30.908.006 30.23.004 28.927V13.523c0-1.317.662-1.98 1.981-1.984 1.87-.007 3.743.002 5.613-.01.27 0 .537-.092.808-.123.119-.011.289-.018.36.051.767.744 1.52 1.503 2.307 2.286-.894.713-1.702 1.376-2.936 1.299-1.505-.093-3.02-.023-4.586-.023v12.37c.193.012.404.035.614.035 1.451.002 2.908-.042 4.358.025.52.026 1.112.207 1.528.511 3.394 2.472 6.753 4.99 10.124 7.495.153.114.314.216.585.402l-.002.002Z"/><path d="M36.485 30.567c-1.03-1.064-2.033-2.08-3-3.13-.106-.116-.071-.44 0-.629 1.156-3.022 1.372-6.114.66-9.262-.473-2.102-1.382-4.012-2.643-5.761-.557-.774-.571-1.717-.063-2.46.532-.779 1.299-1.162 2.214-.939.486.119 1.027.414 1.336.797 4.495 5.6 5.218 14.87 1.689 21.147-.019.035-.049.06-.195.237h.002ZM24.06 18.206c-.65-.683-1.237-1.447-1.969-2.028-1.097-.873-1.478-1.898-1.375-3.294.127-1.722.03-3.46.028-5.188 0-.19-.019-.38-.033-.68-1.568 1.099-3.055 2.144-4.528 3.175-.84-.852-1.642-1.67-2.476-2.515l1.77-1.253c1.92-1.35 3.843-2.692 5.755-4.053.648-.463 1.319-.67 2.058-.286.738.383.954 1.048.954 1.847-.011 4.553-.004 9.109-.004 13.662v.506c-.06.035-.119.072-.18.107ZM31.012 25.13c-1.147-1.182-2.286-2.343-3.403-3.526-.114-.12-.137-.362-.137-.548a8.49 8.49 0 0 0-1.183-4.384c-.687-1.182-.371-2.497.709-3.12 1.096-.631 2.386-.262 3.066.914 1.85 3.198 2.26 6.579 1.239 10.13a3.595 3.595 0 0 1-.119.337c-.014.033-.046.058-.17.198h-.002Z"/></g><defs><clipPath id="clip0_395_7619"><path fill="#fff" d="M0 0h46.338v43H0z"/></clipPath></defs></svg>